<svg height="512" viewBox="0 0 64 64" width="512" xmlns="http://www.w3.org/2000/svg"><path d="m49 55h-36v4a2 2 0 0 0 2 2h40a2 2 0 0 0 2-2v-48a2 2 0 0 0 -2-2h-4v44a2 2 0 0 1 -2 2z" fill="#2488ff"/><path d="m23 17v-14l-16 16h14a2 2 0 0 0 2-2z" fill="#3d9ae2"/><path d="m49 3h-26v14a2 2 0 0 1 -2 2h-14v34a2 2 0 0 0 2 2h40a2 2 0 0 0 2-2v-48a2 2 0 0 0 -2-2z" fill="#d1e7f8"/><path d="m7 27v26a2 2 0 0 0 2 2h27c-16.029 0-29-12.523-29-28z" fill="#9bc9ff"/><g fill="#ff5023"><path d="m31.165 22.014a1 1 0 0 0 -1.151.821l-4 24a1 1 0 0 0 .821 1.151.946.946 0 0 0 .165.014 1 1 0 0 0 .985-.835l4-24a1 1 0 0 0 -.82-1.151z"/><path d="m35.625 26.219a1 1 0 0 0 -1.25 1.562l9.025 7.219-9.024 7.219a1 1 0 0 0 1.25 1.562l10-8a1 1 0 0 0 0-1.562z"/><path d="m23.781 26.375a1 1 0 0 0 -1.406-.156l-10 8a1 1 0 0 0 0 1.562l10 8a1 1 0 0 0 1.25-1.562l-9.025-7.219 9.024-7.219a1 1 0 0 0 .157-1.406z"/></g></svg>